<mxfile host="www.draw.io" modified="2019-11-09T17:20:15.517Z" agent="Mozilla/5.0 (Windows NT 10.0; Win64; x64) AppleWebKit/537.36 (KHTML, like Gecko) Chrome/78.0.3904.87 Safari/537.36" etag="cOGZkK-gdaziOJ31Jwj2" version="12.2.3" type="github" pages="1">
  <diagram id="oXbTCjE5Uj4MqSEyHOLv" name="Page-1">
    <mxGraphModel dx="1024" dy="534" grid="1" gridSize="10" guides="1" tooltips="1" connect="1" arrows="1" fold="1" page="1" pageScale="1" pageWidth="850" pageHeight="1100" math="0" shadow="0">
      <root>
        <mxCell id="0"/>
        <mxCell id="1" parent="0"/>
        <mxCell id="oDJyiGvKNksJAdqZ-109-3" value="" style="edgeStyle=orthogonalEdgeStyle;rounded=0;orthogonalLoop=1;jettySize=auto;html=1;" parent="1" source="oDJyiGvKNksJAdqZ-109-1" target="oDJyiGvKNksJAdqZ-109-2" edge="1">
          <mxGeometry relative="1" as="geometry"/>
        </mxCell>
        <mxCell id="oDJyiGvKNksJAdqZ-109-1" value="&lt;font style=&quot;font-size: 24px&quot;&gt;ورود&lt;/font&gt;" style="rounded=1;whiteSpace=wrap;html=1;" parent="1" vertex="1">
          <mxGeometry x="60" y="60" width="90" height="60" as="geometry"/>
        </mxCell>
        <mxCell id="oDJyiGvKNksJAdqZ-109-5" value="" style="edgeStyle=orthogonalEdgeStyle;rounded=0;orthogonalLoop=1;jettySize=auto;html=1;" parent="1" source="oDJyiGvKNksJAdqZ-109-2" target="oDJyiGvKNksJAdqZ-109-4" edge="1">
          <mxGeometry relative="1" as="geometry"/>
        </mxCell>
        <mxCell id="oDJyiGvKNksJAdqZ-109-2" value="&lt;font style=&quot;font-size: 18px&quot;&gt;وارد کردن اطلاعات&lt;/font&gt;" style="rounded=1;whiteSpace=wrap;html=1;" parent="1" vertex="1">
          <mxGeometry x="230" y="60" width="90" height="60" as="geometry"/>
        </mxCell>
        <mxCell id="oDJyiGvKNksJAdqZ-109-10" value="" style="edgeStyle=orthogonalEdgeStyle;rounded=0;orthogonalLoop=1;jettySize=auto;html=1;" parent="1" source="oDJyiGvKNksJAdqZ-109-4" target="oDJyiGvKNksJAdqZ-109-9" edge="1">
          <mxGeometry relative="1" as="geometry"/>
        </mxCell>
        <mxCell id="oDJyiGvKNksJAdqZ-109-4" value="&lt;font style=&quot;font-size: 18px&quot;&gt;دکمه ورود&lt;/font&gt;" style="rounded=1;whiteSpace=wrap;html=1;" parent="1" vertex="1">
          <mxGeometry x="380" y="60" width="90" height="60" as="geometry"/>
        </mxCell>
        <mxCell id="oDJyiGvKNksJAdqZ-109-12" value="" style="edgeStyle=orthogonalEdgeStyle;rounded=0;orthogonalLoop=1;jettySize=auto;html=1;" parent="1" source="oDJyiGvKNksJAdqZ-109-9" edge="1">
          <mxGeometry relative="1" as="geometry">
            <mxPoint x="550" y="230" as="targetPoint"/>
          </mxGeometry>
        </mxCell>
        <mxCell id="oDJyiGvKNksJAdqZ-109-24" value="" style="edgeStyle=orthogonalEdgeStyle;rounded=0;orthogonalLoop=1;jettySize=auto;html=1;" parent="1" source="oDJyiGvKNksJAdqZ-109-9" target="oDJyiGvKNksJAdqZ-109-23" edge="1">
          <mxGeometry relative="1" as="geometry"/>
        </mxCell>
        <mxCell id="oDJyiGvKNksJAdqZ-109-9" value="&lt;font style=&quot;font-size: 18px&quot;&gt;رفتن به صفحه احراز هویت&lt;/font&gt;" style="rounded=1;whiteSpace=wrap;html=1;" parent="1" vertex="1">
          <mxGeometry x="380" y="200" width="90" height="60" as="geometry"/>
        </mxCell>
        <mxCell id="oDJyiGvKNksJAdqZ-109-25" value="" style="edgeStyle=orthogonalEdgeStyle;rounded=0;orthogonalLoop=1;jettySize=auto;html=1;" parent="1" source="oDJyiGvKNksJAdqZ-109-23" target="oDJyiGvKNksJAdqZ-109-2" edge="1">
          <mxGeometry relative="1" as="geometry"/>
        </mxCell>
        <mxCell id="oDJyiGvKNksJAdqZ-109-23" value="&lt;span style=&quot;font-size: 18px&quot;&gt;دکمه اصلاح شماره همراه&lt;/span&gt;" style="rounded=1;whiteSpace=wrap;html=1;" parent="1" vertex="1">
          <mxGeometry x="230" y="200" width="90" height="60" as="geometry"/>
        </mxCell>
        <mxCell id="oDJyiGvKNksJAdqZ-109-16" value="" style="edgeStyle=orthogonalEdgeStyle;rounded=0;orthogonalLoop=1;jettySize=auto;html=1;" parent="1" source="oDJyiGvKNksJAdqZ-109-13" edge="1">
          <mxGeometry relative="1" as="geometry">
            <mxPoint x="590" y="350" as="targetPoint"/>
          </mxGeometry>
        </mxCell>
        <mxCell id="oDJyiGvKNksJAdqZ-109-21" style="edgeStyle=orthogonalEdgeStyle;rounded=0;orthogonalLoop=1;jettySize=auto;html=1;exitX=0.5;exitY=0;exitDx=0;exitDy=0;entryX=0.75;entryY=0;entryDx=0;entryDy=0;" parent="1" source="oDJyiGvKNksJAdqZ-109-13" target="oDJyiGvKNksJAdqZ-109-9" edge="1">
          <mxGeometry relative="1" as="geometry"/>
        </mxCell>
        <mxCell id="oDJyiGvKNksJAdqZ-109-13" value="" style="rhombus;whiteSpace=wrap;html=1;" parent="1" vertex="1">
          <mxGeometry x="550" y="190" width="80" height="80" as="geometry"/>
        </mxCell>
        <mxCell id="oDJyiGvKNksJAdqZ-109-17" value="&lt;font style=&quot;font-size: 18px&quot;&gt;وارد شدن به صفحه خانه&lt;/font&gt;" style="rounded=1;whiteSpace=wrap;html=1;" parent="1" vertex="1">
          <mxGeometry x="560" y="350" width="90" height="60" as="geometry"/>
        </mxCell>
        <mxCell id="oDJyiGvKNksJAdqZ-109-19" value="&lt;font style=&quot;font-size: 18px&quot;&gt;قابل قبول&lt;/font&gt;" style="text;html=1;strokeColor=none;fillColor=none;align=center;verticalAlign=middle;whiteSpace=wrap;rounded=0;" parent="1" vertex="1">
          <mxGeometry x="580" y="290" width="80" height="40" as="geometry"/>
        </mxCell>
        <mxCell id="oDJyiGvKNksJAdqZ-109-26" value="&lt;font style=&quot;font-size: 18px&quot;&gt;غیر قابل قبول&lt;/font&gt;" style="text;html=1;strokeColor=none;fillColor=none;align=center;verticalAlign=middle;whiteSpace=wrap;rounded=0;" parent="1" vertex="1">
          <mxGeometry x="596" y="170" width="84" height="20" as="geometry"/>
        </mxCell>
        <mxCell id="oDJyiGvKNksJAdqZ-109-29" value="" style="edgeStyle=orthogonalEdgeStyle;rounded=0;orthogonalLoop=1;jettySize=auto;html=1;" parent="1" source="oDJyiGvKNksJAdqZ-109-27" target="oDJyiGvKNksJAdqZ-109-28" edge="1">
          <mxGeometry relative="1" as="geometry"/>
        </mxCell>
        <mxCell id="oDJyiGvKNksJAdqZ-109-27" value="&lt;font style=&quot;font-size: 24px&quot;&gt;زدن دکمه پروفایل&lt;/font&gt;" style="rounded=1;whiteSpace=wrap;html=1;" parent="1" vertex="1">
          <mxGeometry x="60" y="450" width="120" height="60" as="geometry"/>
        </mxCell>
        <mxCell id="oDJyiGvKNksJAdqZ-109-31" value="" style="edgeStyle=orthogonalEdgeStyle;rounded=0;orthogonalLoop=1;jettySize=auto;html=1;" parent="1" source="oDJyiGvKNksJAdqZ-109-28" target="oDJyiGvKNksJAdqZ-109-30" edge="1">
          <mxGeometry relative="1" as="geometry"/>
        </mxCell>
        <mxCell id="oDJyiGvKNksJAdqZ-109-28" value="&lt;font style=&quot;font-size: 18px&quot;&gt;ورود به&amp;nbsp; &amp;nbsp;پروفایل و مشاهده&lt;/font&gt;" style="rounded=1;whiteSpace=wrap;html=1;" parent="1" vertex="1">
          <mxGeometry x="260" y="450" width="120" height="60" as="geometry"/>
        </mxCell>
        <mxCell id="oDJyiGvKNksJAdqZ-109-33" value="" style="edgeStyle=orthogonalEdgeStyle;rounded=0;orthogonalLoop=1;jettySize=auto;html=1;" parent="1" source="oDJyiGvKNksJAdqZ-109-30" target="oDJyiGvKNksJAdqZ-109-32" edge="1">
          <mxGeometry relative="1" as="geometry"/>
        </mxCell>
        <mxCell id="oDJyiGvKNksJAdqZ-109-30" value="&lt;span style=&quot;font-size: 24px&quot;&gt;ویرایش یا ورود اطلاعات&lt;/span&gt;" style="rounded=1;whiteSpace=wrap;html=1;" parent="1" vertex="1">
          <mxGeometry x="460" y="450" width="120" height="60" as="geometry"/>
        </mxCell>
        <mxCell id="oDJyiGvKNksJAdqZ-109-37" value="" style="edgeStyle=orthogonalEdgeStyle;rounded=0;orthogonalLoop=1;jettySize=auto;html=1;" parent="1" source="oDJyiGvKNksJAdqZ-109-32" target="oDJyiGvKNksJAdqZ-109-34" edge="1">
          <mxGeometry relative="1" as="geometry"/>
        </mxCell>
        <mxCell id="oDJyiGvKNksJAdqZ-109-32" value="&lt;span style=&quot;font-size: 24px&quot;&gt;زدن دکمه ذخیره&lt;/span&gt;" style="rounded=1;whiteSpace=wrap;html=1;" parent="1" vertex="1">
          <mxGeometry x="460" y="590" width="120" height="60" as="geometry"/>
        </mxCell>
        <mxCell id="oDJyiGvKNksJAdqZ-109-34" value="&lt;span style=&quot;font-size: 24px&quot;&gt;بازگشت به خانه&lt;/span&gt;" style="rounded=1;whiteSpace=wrap;html=1;" parent="1" vertex="1">
          <mxGeometry x="660" y="590" width="120" height="60" as="geometry"/>
        </mxCell>
        <mxCell id="oDJyiGvKNksJAdqZ-109-40" value="&lt;font style=&quot;font-size: 18px&quot;&gt;قسمت جست و جوی مربیان&lt;/font&gt;" style="rounded=1;whiteSpace=wrap;html=1;" parent="1" vertex="1">
          <mxGeometry x="60" y="710" width="120" height="60" as="geometry"/>
        </mxCell>
        <mxCell id="LmS2wzPe93842zk3-h6x-1" value="&lt;font style=&quot;font-size: 18px&quot;&gt;اعمال فیلتر مورد نظر&lt;/font&gt;" style="rounded=1;whiteSpace=wrap;html=1;" parent="1" vertex="1">
          <mxGeometry x="260" y="710" width="120" height="60" as="geometry"/>
        </mxCell>
        <mxCell id="LmS2wzPe93842zk3-h6x-4" value="" style="endArrow=classic;html=1;exitX=1;exitY=0.5;exitDx=0;exitDy=0;entryX=0;entryY=0.5;entryDx=0;entryDy=0;" parent="1" source="oDJyiGvKNksJAdqZ-109-40" target="LmS2wzPe93842zk3-h6x-1" edge="1">
          <mxGeometry width="50" height="50" relative="1" as="geometry">
            <mxPoint x="60" y="840" as="sourcePoint"/>
            <mxPoint x="110" y="790" as="targetPoint"/>
          </mxGeometry>
        </mxCell>
        <mxCell id="LmS2wzPe93842zk3-h6x-5" value="&lt;font style=&quot;font-size: 18px&quot;&gt;انتخاب مربی موردنظر&lt;/font&gt;" style="rounded=1;whiteSpace=wrap;html=1;" parent="1" vertex="1">
          <mxGeometry x="460" y="710" width="120" height="60" as="geometry"/>
        </mxCell>
        <mxCell id="LmS2wzPe93842zk3-h6x-6" value="" style="endArrow=classic;html=1;exitX=1;exitY=0.5;exitDx=0;exitDy=0;entryX=0;entryY=0.5;entryDx=0;entryDy=0;" parent="1" source="LmS2wzPe93842zk3-h6x-1" target="LmS2wzPe93842zk3-h6x-5" edge="1">
          <mxGeometry width="50" height="50" relative="1" as="geometry">
            <mxPoint x="60" y="840" as="sourcePoint"/>
            <mxPoint x="110" y="790" as="targetPoint"/>
          </mxGeometry>
        </mxCell>
        <mxCell id="LmS2wzPe93842zk3-h6x-7" value="&lt;font style=&quot;font-size: 18px&quot;&gt;مشاهده پروفایل مربی و ارسال درخواست&lt;/font&gt;" style="rounded=1;whiteSpace=wrap;html=1;" parent="1" vertex="1">
          <mxGeometry x="660" y="710" width="120" height="60" as="geometry"/>
        </mxCell>
        <mxCell id="LmS2wzPe93842zk3-h6x-8" value="" style="endArrow=classic;html=1;exitX=1;exitY=0.5;exitDx=0;exitDy=0;entryX=0;entryY=0.5;entryDx=0;entryDy=0;" parent="1" source="LmS2wzPe93842zk3-h6x-5" target="LmS2wzPe93842zk3-h6x-7" edge="1">
          <mxGeometry width="50" height="50" relative="1" as="geometry">
            <mxPoint x="60" y="840" as="sourcePoint"/>
            <mxPoint x="110" y="790" as="targetPoint"/>
          </mxGeometry>
        </mxCell>
        <mxCell id="LmS2wzPe93842zk3-h6x-9" value="&lt;font style=&quot;font-size: 18px&quot;&gt;قسمت خرید پکیج های آموزشی&lt;/font&gt;" style="rounded=1;whiteSpace=wrap;html=1;" parent="1" vertex="1">
          <mxGeometry x="60" y="790" width="120" height="60" as="geometry"/>
        </mxCell>
        <mxCell id="LmS2wzPe93842zk3-h6x-10" value="&lt;font style=&quot;font-size: 18px&quot;&gt;مشاهده فهرست پکیج&lt;/font&gt;" style="rounded=1;whiteSpace=wrap;html=1;" parent="1" vertex="1">
          <mxGeometry x="260" y="790" width="120" height="60" as="geometry"/>
        </mxCell>
        <mxCell id="LmS2wzPe93842zk3-h6x-11" value="&lt;font style=&quot;font-size: 18px&quot;&gt;خرید پکیج مورد نظر&lt;/font&gt;" style="rounded=1;whiteSpace=wrap;html=1;" parent="1" vertex="1">
          <mxGeometry x="460" y="790" width="120" height="60" as="geometry"/>
        </mxCell>
        <mxCell id="LmS2wzPe93842zk3-h6x-12" value="" style="endArrow=classic;html=1;exitX=1;exitY=0.5;exitDx=0;exitDy=0;entryX=0;entryY=0.5;entryDx=0;entryDy=0;" parent="1" source="LmS2wzPe93842zk3-h6x-10" target="LmS2wzPe93842zk3-h6x-11" edge="1">
          <mxGeometry width="50" height="50" relative="1" as="geometry">
            <mxPoint x="390" y="850" as="sourcePoint"/>
            <mxPoint x="440" y="800" as="targetPoint"/>
          </mxGeometry>
        </mxCell>
        <mxCell id="LmS2wzPe93842zk3-h6x-13" value="" style="endArrow=classic;html=1;exitX=1;exitY=0.5;exitDx=0;exitDy=0;entryX=0;entryY=0.5;entryDx=0;entryDy=0;" parent="1" source="LmS2wzPe93842zk3-h6x-9" target="LmS2wzPe93842zk3-h6x-10" edge="1">
          <mxGeometry width="50" height="50" relative="1" as="geometry">
            <mxPoint x="190" y="850" as="sourcePoint"/>
            <mxPoint x="240" y="800" as="targetPoint"/>
          </mxGeometry>
        </mxCell>
        <mxCell id="LmS2wzPe93842zk3-h6x-15" value="Text" style="text;html=1;resizable=0;points=[];autosize=1;align=left;verticalAlign=top;spacingTop=-4;" parent="1" vertex="1">
          <mxGeometry x="875" y="993" width="40" height="20" as="geometry"/>
        </mxCell>
        <mxCell id="LmS2wzPe93842zk3-h6x-17" value="" style="endArrow=classic;html=1;exitX=0.5;exitY=0;exitDx=0;exitDy=0;entryX=0.5;entryY=1;entryDx=0;entryDy=0;" parent="1" source="LmS2wzPe93842zk3-h6x-7" target="oDJyiGvKNksJAdqZ-109-34" edge="1">
          <mxGeometry width="50" height="50" relative="1" as="geometry">
            <mxPoint x="700" y="710" as="sourcePoint"/>
            <mxPoint x="750" y="660" as="targetPoint"/>
          </mxGeometry>
        </mxCell>
        <mxCell id="LmS2wzPe93842zk3-h6x-18" value="&lt;span style=&quot;font-size: 24px ; text-align: left&quot;&gt;بازگشت به خانه&lt;/span&gt;" style="rounded=1;whiteSpace=wrap;html=1;" parent="1" vertex="1">
          <mxGeometry x="660" y="790" width="120" height="60" as="geometry"/>
        </mxCell>
        <mxCell id="LmS2wzPe93842zk3-h6x-20" value="" style="endArrow=classic;html=1;exitX=1;exitY=0.5;exitDx=0;exitDy=0;entryX=0;entryY=0.5;entryDx=0;entryDy=0;" parent="1" source="LmS2wzPe93842zk3-h6x-11" target="LmS2wzPe93842zk3-h6x-18" edge="1">
          <mxGeometry width="50" height="50" relative="1" as="geometry">
            <mxPoint x="600" y="850" as="sourcePoint"/>
            <mxPoint x="650" y="800" as="targetPoint"/>
          </mxGeometry>
        </mxCell>
        <mxCell id="53qtXwluRo6baSssdEay-1" value="&lt;font style=&quot;font-size: 24px&quot;&gt;پشتیبانی&lt;/font&gt;" style="rounded=1;whiteSpace=wrap;html=1;" vertex="1" parent="1">
          <mxGeometry x="60" y="870" width="120" height="60" as="geometry"/>
        </mxCell>
        <mxCell id="53qtXwluRo6baSssdEay-2" value="&lt;font style=&quot;font-size: 14px&quot;&gt;مشاهده شماره تماس و ایمیل برای ارتباط با پشتیبانی&lt;/font&gt;" style="rounded=1;whiteSpace=wrap;html=1;" vertex="1" parent="1">
          <mxGeometry x="260" y="870" width="120" height="60" as="geometry"/>
        </mxCell>
        <mxCell id="53qtXwluRo6baSssdEay-3" value="" style="endArrow=classic;html=1;exitX=1;exitY=0.5;exitDx=0;exitDy=0;entryX=0;entryY=0.5;entryDx=0;entryDy=0;" edge="1" parent="1" source="53qtXwluRo6baSssdEay-1" target="53qtXwluRo6baSssdEay-2">
          <mxGeometry width="50" height="50" relative="1" as="geometry">
            <mxPoint x="190" y="930" as="sourcePoint"/>
            <mxPoint x="240" y="880" as="targetPoint"/>
          </mxGeometry>
        </mxCell>
        <mxCell id="53qtXwluRo6baSssdEay-4" value="&lt;font style=&quot;font-size: 18px&quot;&gt;قسمت مربیان در ارتباط&lt;/font&gt;" style="rounded=1;whiteSpace=wrap;html=1;" vertex="1" parent="1">
          <mxGeometry x="60" y="953" width="120" height="60" as="geometry"/>
        </mxCell>
        <mxCell id="53qtXwluRo6baSssdEay-5" value="&lt;font style=&quot;font-size: 18px&quot;&gt;انتخاب مربی مورد نظر&lt;/font&gt;" style="rounded=1;whiteSpace=wrap;html=1;" vertex="1" parent="1">
          <mxGeometry x="260" y="953" width="120" height="60" as="geometry"/>
        </mxCell>
        <mxCell id="53qtXwluRo6baSssdEay-6" value="&lt;font style=&quot;font-size: 18px&quot;&gt;درخواست برنامه ی غذایی یا تمرینی&lt;/font&gt;" style="rounded=1;whiteSpace=wrap;html=1;" vertex="1" parent="1">
          <mxGeometry x="460" y="880" width="120" height="60" as="geometry"/>
        </mxCell>
        <mxCell id="53qtXwluRo6baSssdEay-7" value="&lt;font style=&quot;font-size: 18px&quot;&gt;مشاهده برنامه های موجود&lt;/font&gt;" style="rounded=1;whiteSpace=wrap;html=1;" vertex="1" parent="1">
          <mxGeometry x="460" y="950" width="120" height="60" as="geometry"/>
        </mxCell>
        <mxCell id="53qtXwluRo6baSssdEay-8" value="&lt;font style=&quot;font-size: 18px&quot;&gt;انتخاب صفحه چت با مربی&lt;/font&gt;" style="rounded=1;whiteSpace=wrap;html=1;" vertex="1" parent="1">
          <mxGeometry x="460" y="1020" width="120" height="60" as="geometry"/>
        </mxCell>
        <mxCell id="53qtXwluRo6baSssdEay-9" value="" style="endArrow=classic;html=1;exitX=1;exitY=0.5;exitDx=0;exitDy=0;entryX=0;entryY=0.5;entryDx=0;entryDy=0;" edge="1" parent="1" source="53qtXwluRo6baSssdEay-5" target="53qtXwluRo6baSssdEay-6">
          <mxGeometry width="50" height="50" relative="1" as="geometry">
            <mxPoint x="400" y="1000" as="sourcePoint"/>
            <mxPoint x="450" y="950" as="targetPoint"/>
          </mxGeometry>
        </mxCell>
        <mxCell id="53qtXwluRo6baSssdEay-10" value="" style="endArrow=classic;html=1;entryX=0;entryY=0.5;entryDx=0;entryDy=0;" edge="1" parent="1" source="53qtXwluRo6baSssdEay-5" target="53qtXwluRo6baSssdEay-7">
          <mxGeometry width="50" height="50" relative="1" as="geometry">
            <mxPoint x="380" y="1033" as="sourcePoint"/>
            <mxPoint x="450.71067811865476" y="983" as="targetPoint"/>
          </mxGeometry>
        </mxCell>
        <mxCell id="53qtXwluRo6baSssdEay-11" value="" style="endArrow=classic;html=1;exitX=1;exitY=0.5;exitDx=0;exitDy=0;entryX=0;entryY=0.5;entryDx=0;entryDy=0;" edge="1" parent="1" source="53qtXwluRo6baSssdEay-5" target="53qtXwluRo6baSssdEay-8">
          <mxGeometry width="50" height="50" relative="1" as="geometry">
            <mxPoint x="390" y="1050" as="sourcePoint"/>
            <mxPoint x="440" y="1000" as="targetPoint"/>
          </mxGeometry>
        </mxCell>
        <mxCell id="53qtXwluRo6baSssdEay-12" value="&lt;font style=&quot;font-size: 18px&quot;&gt;بازگت به صفحه انتخاب مربیان&lt;/font&gt;" style="rounded=1;whiteSpace=wrap;html=1;" vertex="1" parent="1">
          <mxGeometry x="660" y="950" width="120" height="60" as="geometry"/>
        </mxCell>
        <mxCell id="53qtXwluRo6baSssdEay-13" value="" style="endArrow=classic;html=1;entryX=0;entryY=0.5;entryDx=0;entryDy=0;" edge="1" parent="1" target="53qtXwluRo6baSssdEay-12">
          <mxGeometry width="50" height="50" relative="1" as="geometry">
            <mxPoint x="580" y="980" as="sourcePoint"/>
            <mxPoint x="630" y="930" as="targetPoint"/>
          </mxGeometry>
        </mxCell>
        <mxCell id="53qtXwluRo6baSssdEay-14" value="" style="endArrow=classic;html=1;exitX=1;exitY=0.5;exitDx=0;exitDy=0;entryX=0;entryY=0.5;entryDx=0;entryDy=0;" edge="1" parent="1" source="53qtXwluRo6baSssdEay-8" target="53qtXwluRo6baSssdEay-12">
          <mxGeometry width="50" height="50" relative="1" as="geometry">
            <mxPoint x="580" y="1070" as="sourcePoint"/>
            <mxPoint x="630" y="1020" as="targetPoint"/>
          </mxGeometry>
        </mxCell>
        <mxCell id="53qtXwluRo6baSssdEay-15" value="" style="endArrow=classic;html=1;exitX=1;exitY=0.5;exitDx=0;exitDy=0;entryX=0;entryY=0.5;entryDx=0;entryDy=0;" edge="1" parent="1" source="53qtXwluRo6baSssdEay-6" target="53qtXwluRo6baSssdEay-12">
          <mxGeometry width="50" height="50" relative="1" as="geometry">
            <mxPoint x="610" y="930" as="sourcePoint"/>
            <mxPoint x="660" y="880" as="targetPoint"/>
          </mxGeometry>
        </mxCell>
        <mxCell id="53qtXwluRo6baSssdEay-16" value="" style="endArrow=classic;html=1;entryX=0;entryY=0.5;entryDx=0;entryDy=0;exitX=1;exitY=0.5;exitDx=0;exitDy=0;" edge="1" parent="1" source="53qtXwluRo6baSssdEay-4" target="53qtXwluRo6baSssdEay-5">
          <mxGeometry width="50" height="50" relative="1" as="geometry">
            <mxPoint x="200" y="1000" as="sourcePoint"/>
            <mxPoint x="230" y="930" as="targetPoint"/>
          </mxGeometry>
        </mxCell>
        <mxCell id="53qtXwluRo6baSssdEay-21" value="&lt;font style=&quot;font-size: 18px&quot;&gt;قسمت ورزشکاران در ارتباط&lt;/font&gt;" style="rounded=1;whiteSpace=wrap;html=1;" vertex="1" parent="1">
          <mxGeometry x="60" y="1169.5" width="120" height="60" as="geometry"/>
        </mxCell>
        <mxCell id="53qtXwluRo6baSssdEay-22" value="&lt;font style=&quot;font-size: 18px&quot;&gt;انتخاب ورزشکار مورد نظر&lt;/font&gt;" style="rounded=1;whiteSpace=wrap;html=1;" vertex="1" parent="1">
          <mxGeometry x="260" y="1169.5" width="120" height="60" as="geometry"/>
        </mxCell>
        <mxCell id="53qtXwluRo6baSssdEay-23" value="&lt;font style=&quot;font-size: 18px&quot;&gt;ارسال برنامه ی غذایی یا تمرینی&lt;/font&gt;" style="rounded=1;whiteSpace=wrap;html=1;" vertex="1" parent="1">
          <mxGeometry x="476" y="1100" width="120" height="60" as="geometry"/>
        </mxCell>
        <mxCell id="53qtXwluRo6baSssdEay-24" value="&lt;font style=&quot;font-size: 18px&quot;&gt;مشاهده برنامه های ارسال شده برای ورزشکار&lt;/font&gt;" style="rounded=1;whiteSpace=wrap;html=1;" vertex="1" parent="1">
          <mxGeometry x="476" y="1169.5" width="120" height="60" as="geometry"/>
        </mxCell>
        <mxCell id="53qtXwluRo6baSssdEay-25" value="&lt;font style=&quot;font-size: 18px&quot;&gt;انتخاب صفحه چت با ورزشکار&lt;/font&gt;" style="rounded=1;whiteSpace=wrap;html=1;" vertex="1" parent="1">
          <mxGeometry x="476" y="1240" width="120" height="60" as="geometry"/>
        </mxCell>
        <mxCell id="53qtXwluRo6baSssdEay-26" value="" style="endArrow=classic;html=1;exitX=1;exitY=0.5;exitDx=0;exitDy=0;entryX=0;entryY=0.5;entryDx=0;entryDy=0;" edge="1" parent="1" source="53qtXwluRo6baSssdEay-22">
          <mxGeometry width="50" height="50" relative="1" as="geometry">
            <mxPoint x="410" y="1039.5" as="sourcePoint"/>
            <mxPoint x="476" y="1130.5" as="targetPoint"/>
          </mxGeometry>
        </mxCell>
        <mxCell id="53qtXwluRo6baSssdEay-27" value="" style="endArrow=classic;html=1;entryX=0;entryY=0.5;entryDx=0;entryDy=0;" edge="1" parent="1" source="53qtXwluRo6baSssdEay-22" target="53qtXwluRo6baSssdEay-24">
          <mxGeometry width="50" height="50" relative="1" as="geometry">
            <mxPoint x="390" y="1072.5" as="sourcePoint"/>
            <mxPoint x="460.71067811865476" y="1022.5" as="targetPoint"/>
          </mxGeometry>
        </mxCell>
        <mxCell id="53qtXwluRo6baSssdEay-28" value="" style="endArrow=classic;html=1;exitX=1;exitY=0.5;exitDx=0;exitDy=0;entryX=0;entryY=0.5;entryDx=0;entryDy=0;" edge="1" parent="1" source="53qtXwluRo6baSssdEay-22">
          <mxGeometry width="50" height="50" relative="1" as="geometry">
            <mxPoint x="400" y="1089.5" as="sourcePoint"/>
            <mxPoint x="476" y="1269.5" as="targetPoint"/>
          </mxGeometry>
        </mxCell>
        <mxCell id="53qtXwluRo6baSssdEay-29" value="&lt;font style=&quot;font-size: 18px&quot;&gt;بازگت به صفحه انتخاب ورزشکار&lt;/font&gt;" style="rounded=1;whiteSpace=wrap;html=1;" vertex="1" parent="1">
          <mxGeometry x="670" y="1169.5" width="120" height="60" as="geometry"/>
        </mxCell>
        <mxCell id="53qtXwluRo6baSssdEay-30" value="" style="endArrow=classic;html=1;entryX=0;entryY=0.5;entryDx=0;entryDy=0;exitX=1;exitY=0.5;exitDx=0;exitDy=0;" edge="1" parent="1" source="53qtXwluRo6baSssdEay-24">
          <mxGeometry width="50" height="50" relative="1" as="geometry">
            <mxPoint x="590" y="1019.5" as="sourcePoint"/>
            <mxPoint x="670" y="1199.5" as="targetPoint"/>
          </mxGeometry>
        </mxCell>
        <mxCell id="53qtXwluRo6baSssdEay-31" value="" style="endArrow=classic;html=1;exitX=1;exitY=0.5;exitDx=0;exitDy=0;entryX=0;entryY=0.5;entryDx=0;entryDy=0;" edge="1" parent="1">
          <mxGeometry width="50" height="50" relative="1" as="geometry">
            <mxPoint x="596" y="1269.5" as="sourcePoint"/>
            <mxPoint x="670" y="1199.5" as="targetPoint"/>
          </mxGeometry>
        </mxCell>
        <mxCell id="53qtXwluRo6baSssdEay-32" value="" style="endArrow=classic;html=1;exitX=1;exitY=0.5;exitDx=0;exitDy=0;entryX=0;entryY=0.5;entryDx=0;entryDy=0;" edge="1" parent="1">
          <mxGeometry width="50" height="50" relative="1" as="geometry">
            <mxPoint x="596" y="1130.5" as="sourcePoint"/>
            <mxPoint x="670" y="1199.5" as="targetPoint"/>
          </mxGeometry>
        </mxCell>
        <mxCell id="53qtXwluRo6baSssdEay-33" value="" style="endArrow=classic;html=1;entryX=0;entryY=0.5;entryDx=0;entryDy=0;exitX=1;exitY=0.5;exitDx=0;exitDy=0;" edge="1" parent="1" source="53qtXwluRo6baSssdEay-21" target="53qtXwluRo6baSssdEay-22">
          <mxGeometry width="50" height="50" relative="1" as="geometry">
            <mxPoint x="210" y="1039.5" as="sourcePoint"/>
            <mxPoint x="240" y="969.5" as="targetPoint"/>
          </mxGeometry>
        </mxCell>
        <mxCell id="53qtXwluRo6baSssdEay-34" value="&lt;font style=&quot;font-size: 18px&quot;&gt;در تمامی قسمت ها دکمه ی بازگشت در نوار بالای صفحه وجود دارد&lt;/font&gt;" style="text;html=1;strokeColor=none;fillColor=none;align=center;verticalAlign=middle;whiteSpace=wrap;rounded=0;" vertex="1" parent="1">
          <mxGeometry x="200" y="1410" width="440" height="20" as="geometry"/>
        </mxCell>
      </root>
    </mxGraphModel>
  </diagram>
</mxfile>
